<svg width="24" height="25" viewBox="0 0 24 25" fill="none" xmlns="http://www.w3.org/2000/svg">
<circle cx="12" cy="12.5" r="12" fill="#FFC530"/>
<path d="M18.2 11.5047V11.3047H18H16.7053L17.5583 8.05071L17.624 7.8H17.3648H16.2647H16.1079L16.0704 7.95223L15.2459 11.3047H13.6638L12.8062 7.95046L12.7678 7.8H12.6125H11.4329H11.2771L11.239 7.95105L10.3924 11.3047H8.81083L7.98627 7.95223L7.94883 7.8H7.79206H6.63516H6.37598L6.4417 8.05071L7.29469 11.3047H6H5.8V11.5047V12.4461V12.6461H6H7.64936L8.83498 17.1361L8.87431 17.2851H9.02836H10.1285H10.2841L10.3224 17.1344L11.4636 12.6461H12.5364L13.6776 17.1344L13.7159 17.2851H13.8715H14.9716H15.1257L15.165 17.1361L16.3506 12.6461H18H18.2V12.4461V11.5047ZM12.1971 11.3047H11.8029L12 10.5211L12.1971 11.3047ZM9.59702 14.4735L9.14742 12.6461H10.0539L9.59702 14.4735ZM14.9209 12.6461L14.4695 14.488L14.0036 12.6461H14.9209Z" fill="#DCA415" stroke="#DCA415" stroke-width="0.4"/>
</svg>
