<svg width="24" height="23" viewBox="0 0 24 23" fill="none" xmlns="http://www.w3.org/2000/svg">
<path d="M10.7777 0.911505C11.1624 -0.272584 12.8376 -0.272585 13.2223 0.911503L15.1741 6.91832C15.3461 7.44787 15.8396 7.80639 16.3964 7.80639H22.7123C23.9573 7.80639 24.475 9.39957 23.4677 10.1314L18.358 13.8438C17.9076 14.1711 17.7191 14.7512 17.8912 15.2807L19.8429 21.2875C20.2276 22.4716 18.8724 23.4563 17.8651 22.7245L12.7554 19.012C12.305 18.6848 11.695 18.6848 11.2446 19.012L6.13486 22.7245C5.12762 23.4563 3.77237 22.4716 4.15711 21.2875L6.10884 15.2807C6.2809 14.7512 6.09241 14.1711 5.64196 13.8438L0.532251 10.1314C-0.474995 9.39957 0.0426606 7.80639 1.28768 7.80639H7.60363C8.16042 7.80639 8.65389 7.44787 8.82595 6.91832L10.7777 0.911505Z" fill="#FFC700"/>
</svg>
