<svg width="35" height="34" viewBox="0 0 35 34" fill="none" xmlns="http://www.w3.org/2000/svg">
<path fill-rule="evenodd" clip-rule="evenodd" d="M17.998 34C27.3869 34 34.998 26.3888 34.998 17C34.998 7.61116 27.3869 0 17.998 0C8.60921 0 0.998047 7.61116 0.998047 17C0.998047 26.3888 8.60921 34 17.998 34ZM23.0929 7.29021V7.28571L23.0977 7.29021H23.0929ZM23.0929 7.29021H19.8292C19.1707 7.29021 18.5362 7.36657 17.8008 7.6361C16.3011 8.20211 15.5368 9.53179 15.5368 11.5982V13.6152H13.4315V16.9888H15.5368V26.7143H19.8292V16.9888H22.7517L23.1458 13.6152H19.8244V12.0878C19.8244 11.6206 19.8773 11.2747 20.007 11.0771C20.1945 10.7806 20.5598 10.6324 21.1414 10.6324H23.0929V7.29021Z" fill="#E1E1E1"/>
</svg>
