<svg width="35" height="34" viewBox="0 0 35 34" fill="none" xmlns="http://www.w3.org/2000/svg">
<path fill-rule="evenodd" clip-rule="evenodd" d="M17.998 34C27.3889 34 34.998 26.3868 34.998 17C34.998 7.60918 27.3889 0 17.998 0C8.60722 0 0.998047 7.60918 0.998047 17C0.998047 26.3908 8.60722 34 17.998 34ZM13.7843 26.7143H22.2147C25.248 26.7143 27.7138 24.2175 27.7138 21.1503V12.8539C27.7138 9.78249 25.248 7.28571 22.2147 7.28571H13.7843C10.7511 7.28571 8.28523 9.78249 8.28523 12.8539V21.1503C8.28523 24.2175 10.7511 26.7143 13.7843 26.7143ZM10.0652 12.8539C10.0652 10.7746 11.7349 9.08389 13.7843 9.08389H22.2147C24.2641 9.08389 25.9338 10.7746 25.9338 12.8539V21.1503C25.9338 23.2254 24.2682 24.9161 22.2147 24.9161H13.7843C11.7349 24.9161 10.0652 23.2254 10.0652 21.1503V12.8539ZM12.9644 16.9999C12.9644 19.8108 15.222 22.0968 17.9981 22.0968C20.7742 22.0968 23.0318 19.8108 23.0318 16.9999C23.0318 14.1889 20.7742 11.903 17.9981 11.903C15.222 11.903 12.9644 14.1889 12.9644 16.9999ZM14.7403 16.9958C14.7403 15.1769 16.2018 13.697 17.9981 13.697C19.7944 13.697 21.2559 15.1769 21.2559 16.9958C21.2559 18.8146 19.7944 20.2945 17.9981 20.2945C16.2018 20.2945 14.7403 18.8146 14.7403 16.9958ZM24.3947 11.7998C24.3947 12.4612 23.864 12.9985 23.2108 12.9985C22.5576 12.9985 22.0268 12.4612 22.0268 11.7998C22.0268 11.1384 22.5576 10.601 23.2108 10.601C23.864 10.601 24.3947 11.1384 24.3947 11.7998Z" fill="#616161"/>
</svg>
