<svg width="35" height="34" viewBox="0 0 35 34" fill="none" xmlns="http://www.w3.org/2000/svg">
<path fill-rule="evenodd" clip-rule="evenodd" d="M17.998 34C27.3869 34 34.998 26.3888 34.998 17C34.998 7.61117 27.3869 0 17.998 0C8.60921 0 0.998047 7.61117 0.998047 17C0.998047 26.3888 8.60921 34 17.998 34ZM24.3319 8.90476H11.6639C9.79502 8.90476 8.28365 10.4218 8.28365 12.2887V18.8572C8.28365 20.724 9.79502 22.2411 11.6639 22.2411H16.4256L17.9979 25.3443L19.7775 22.2411H24.3319C26.2008 22.2411 27.7122 20.724 27.7122 18.8572V12.2887C27.7122 10.4178 26.1968 8.90476 24.3319 8.90476ZM14.7388 12.7198C15.8561 12.7035 16.234 13.4438 16.364 13.9644V13.9603C16.429 14.2125 16.429 14.4158 16.429 14.4524V17.8933H15.2101V14.4606C15.2101 13.7163 14.7388 13.7163 14.7388 13.7163V12.7198ZM11.5377 14.4248C11.8139 14.258 12.1349 14.1645 12.4802 14.1645C13.5122 14.1645 14.3451 14.9982 14.3451 16.0313C14.3451 17.0644 13.5082 17.8981 12.4802 17.8981C12.1349 17.8981 11.8139 17.8005 11.5377 17.6378V17.8737H10.2701V12.7247H11.5377V14.4248ZM11.5824 16.0272C11.5824 16.4462 11.9236 16.7878 12.3421 16.7878C12.7646 16.7878 13.1019 16.4462 13.1019 16.0272C13.1019 15.6083 12.7606 15.2667 12.3421 15.2667C11.9236 15.2667 11.5824 15.6083 11.5824 16.0272ZM19.1873 14.1066C18.0985 14.1066 17.2168 14.9891 17.2168 16.0791C17.2168 17.1692 18.0985 18.0477 19.1873 18.0477C20.2762 18.0477 21.1578 17.1651 21.1578 16.0791C21.1578 14.9932 20.2762 14.1066 19.1873 14.1066ZM19.1873 16.8885C18.7404 16.8885 18.3788 16.5265 18.3788 16.0791C18.3788 15.6318 18.7404 15.2698 19.1873 15.2698C19.6342 15.2698 19.9958 15.6318 19.9958 16.0791C19.9958 16.5265 19.6342 16.8885 19.1873 16.8885ZM25.721 14.3428V18.166C25.721 18.166 25.9769 19.6586 23.4376 19.6586V18.6662C23.4376 18.6662 24.5427 18.7964 24.5427 18.17V17.6413C24.2746 17.7999 23.9618 17.8935 23.6245 17.8935C22.621 17.8935 21.8044 17.0759 21.8044 16.0714C21.8044 15.0668 22.621 14.2493 23.6245 14.2493C23.9577 14.2493 24.2746 14.3428 24.5427 14.5014V14.3428H25.721ZM22.877 16.0754C22.877 16.4862 23.2101 16.8238 23.6245 16.8238C24.0349 16.8238 24.3721 16.4862 24.3721 16.0754C24.3721 15.6646 24.0349 15.3271 23.6245 15.3271C23.2142 15.3271 22.877 15.6646 22.877 16.0754Z" fill="#E1E1E1"/>
</svg>
