<svg width="118" height="30" viewBox="0 0 118 30" fill="none" xmlns="http://www.w3.org/2000/svg">
<g clip-path="url(#clip0_302_2377)">
<path d="M28.7206 16.9647H0V12.6441H28.7206V16.9647ZM23.9288 19.511C26.2345 20.4132 27.3873 21.8367 27.3873 23.7815C27.3873 25.7262 26.2345 27.1598 23.9288 28.0519C21.6231 28.9542 18.4353 29.3952 14.3553 29.3952C10.2753 29.3952 7.08742 28.9441 4.78175 28.0519C2.47609 27.1497 1.32325 25.7262 1.32325 23.7815C1.32325 21.8367 2.47609 20.4032 4.78175 19.511C7.08742 18.6087 10.2753 18.1677 14.3553 18.1677C18.4353 18.1677 21.6231 18.6188 23.9288 19.511ZM26.9863 4.89504H7.31799V6.88994H27.3272V11.1805H1.72424V0.604492H26.9963V4.89504H26.9863ZM9.21264 22.6988C7.94954 22.9294 7.31799 23.2902 7.31799 23.7815C7.31799 24.7338 9.66375 25.215 14.3653 25.215C19.0669 25.215 21.4126 24.7438 21.4126 23.7815C21.4126 23.2902 20.7811 22.9294 19.518 22.6988C18.2549 22.4682 16.5407 22.3479 14.3653 22.3479C12.19 22.3479 10.4757 22.4682 9.21264 22.6988Z" fill="white"/>
<path d="M48.7694 8.94499C48.7694 12.7544 48.0977 16.0725 46.7544 18.8894C45.4111 21.7064 43.5165 23.8717 41.0504 25.3854C38.5944 26.8991 35.7073 27.661 32.4092 27.661V22.3379C35.7975 22.3179 38.4139 21.1149 40.2585 18.7491C42.093 16.3732 43.0152 13.1052 43.0152 8.94499V6.38871H32.4092V1.26612H48.7694V8.94499ZM58.774 28.9943H53.1502V0.604492H58.774V28.9943Z" fill="white"/>
<path d="M107.013 3.12042V9.63643H106.051V3.12042H103.395V2.2583H109.66V3.12042H107.013Z" fill="white"/>
<path d="M111.464 2.24854L114.311 7.26085L117.158 2.24854H118V9.62667H117.038V4.18329L114.662 8.38361H113.96L111.584 4.18329V9.62667H110.622V2.24854H111.464Z" fill="white"/>
<path d="M78.3028 3.07059C79.4557 3.63196 80.3378 4.43394 80.9494 5.46647C81.5709 6.50904 81.8816 7.72202 81.8816 9.12547C81.8816 10.3785 81.4907 11.6316 80.6987 12.8546C79.9068 14.0877 78.6838 15.5011 77.0297 17.0951L68.5188 25.2451H82.9342V26.418H66.6342V25.2451L75.7766 16.4936C77.4107 14.9197 78.6236 13.5363 79.4156 12.3434C80.2075 11.1504 80.5985 10.0778 80.5985 9.12547C80.5985 7.33106 80.0271 5.92761 78.8743 4.91512C77.7214 3.90263 76.1977 3.4014 74.2729 3.4014C72.9397 3.4014 71.7768 3.69211 70.8144 4.27354C69.8421 4.85497 69.1103 5.62687 68.599 6.59926C68.0877 7.57165 67.8371 8.62423 67.8371 9.75702H66.5439C66.5439 8.40369 66.8447 7.15061 67.4562 6.0078C68.0677 4.865 68.9599 3.95275 70.1227 3.26105C71.2956 2.56935 72.679 2.22852 74.2729 2.22852C75.8669 2.22852 77.15 2.50921 78.3028 3.07059Z" fill="white"/>
<path d="M96.6276 20.5635H83.7158V19.4207L96.5975 2.73975H97.8907V19.4308H102.412V20.5736H97.8907V26.4179H96.6276V20.5736V20.5635ZM96.6276 19.4207V4.56423L85.2095 19.4207H96.6276Z" fill="white"/>
</g>
<defs>
<clipPath id="clip0_302_2377">
<rect width="118" height="28.7908" fill="white" transform="translate(0 0.604492)"/>
</clipPath>
</defs>
</svg>
