<svg width="40" height="40" viewBox="0 0 40 40" fill="none" xmlns="http://www.w3.org/2000/svg">
<rect width="40" height="40" rx="20" fill="#1F6FE8" fill-opacity="0.1"/>
<path d="M27.488 19.276C27.488 14.83 24.122 11.572 19.568 11.572C15.014 11.572 11.648 14.83 11.648 19.276C11.648 23.722 15.014 26.98 19.568 26.98C20.702 26.98 21.764 26.782 22.7 26.404L24.824 29.068L27.434 27.07L25.454 24.568C26.732 23.218 27.488 21.382 27.488 19.276ZM19.568 24.028C16.904 24.028 14.924 22.03 14.924 19.276C14.924 16.504 16.904 14.524 19.568 14.524C22.232 14.524 24.212 16.504 24.212 19.276C24.212 20.32 23.924 21.256 23.438 22.012L21.422 19.474L18.794 21.49L20.702 23.902C20.342 23.992 19.964 24.028 19.568 24.028Z" fill="#1F6FE8"/>
</svg>
